<svg viewBox="0 0 13 12" fill="none" xmlns="http://www.w3.org/2000/svg">
<path d="M6.01393 11.4545V0.545448C6.01393 0.42027 5.91166 0.317993 5.78648 0.317993C5.6613 0.317993 5.55902 0.420266 5.55902 0.545448V11.4545C5.55902 11.5797 5.66129 11.682 5.78648 11.682C5.91165 11.682 6.01393 11.5797 6.01393 11.4545Z" fill="white"/>
<path d="M1.21338 7.68858C1.21338 7.94746 1.36998 8.17278 1.59743 8.27293V10.3615C1.59743 10.7136 1.88402 11.0001 2.23611 11.0001H3.18852C3.54062 11.0001 3.8272 10.7136 3.8272 10.3615V8.27293C4.05465 8.17279 4.21125 7.94588 4.21125 7.68858V4.71149C4.21125 4.35673 3.92254 4.07069 3.57045 4.07069H1.85691C1.50214 4.07069 1.21611 4.3594 1.21611 4.71149V7.68858H1.21338ZM1.66827 4.70931C1.66827 4.60704 1.75244 4.52288 1.85471 4.52288H3.56826C3.67053 4.52288 3.75469 4.60704 3.75469 4.70931V7.6864C3.75469 7.78175 3.67959 7.86378 3.58211 7.87071C3.46386 7.87977 3.37064 7.97778 3.37064 8.09817V10.3593C3.37064 10.4616 3.28861 10.5437 3.18633 10.5437H2.23391C2.13164 10.5437 2.0496 10.4616 2.0496 10.3593V8.09817C2.0496 7.97991 1.95851 7.87977 1.83813 7.87071C1.74065 7.86379 1.66555 7.78229 1.66555 7.6864V4.70931H1.66827Z" fill="white"/>
<path d="M2.71132 3.67063C3.44747 3.67063 4.04779 3.07085 4.04779 2.33416C4.04779 1.59749 3.44801 0.999817 2.71132 0.999817C1.97517 0.999817 1.37485 1.5996 1.37485 2.33629C1.37485 3.07297 1.97516 3.67063 2.71132 3.67063V3.67063ZM2.71132 1.45473C3.19765 1.45473 3.59288 1.84996 3.59288 2.33629C3.59288 2.82262 3.19765 3.21785 2.71132 3.21785C2.22499 3.21785 1.82976 2.82262 1.82976 2.33629C1.82976 1.84996 2.22713 1.45473 2.71132 1.45473Z" fill="white"/>
<path d="M6.66788 8.05241C6.65403 8.11846 6.67001 8.18877 6.71316 8.24097C6.75631 8.29318 6.82023 8.32514 6.89054 8.32514H7.74494V10.3594C7.74494 10.7115 8.03152 10.9981 8.38361 10.9981H9.33603C9.68812 10.9981 9.97471 10.7115 9.97471 10.3594V8.32514H10.8291C10.8973 8.32514 10.9607 8.29318 11.0065 8.24097C11.0496 8.18877 11.0656 8.11846 11.0518 8.05241L10.3561 4.68437C10.3422 4.34346 10.0605 4.0686 9.71529 4.0686H8.00175C7.65604 4.0686 7.37425 4.34346 7.36094 4.68437L6.66788 8.05241ZM7.81365 4.75459C7.81578 4.73861 7.81844 4.7253 7.81844 4.70932C7.81844 4.60704 7.90261 4.52288 8.00488 4.52288H9.71843C9.8207 4.52288 9.90486 4.60704 9.90486 4.70932C9.90486 4.7253 9.907 4.74128 9.90966 4.75459L10.5526 7.87077L9.74985 7.87024C9.62468 7.87024 9.5224 7.97251 9.5224 8.0977V10.3589C9.5224 10.4611 9.44037 10.5432 9.33809 10.5432H8.3862C8.28393 10.5432 8.20189 10.4612 8.20189 10.3589V8.0977C8.20189 7.97252 8.09962 7.87024 7.97444 7.87024H7.17011L7.81365 4.75459Z" fill="white"/>
<path d="M8.86146 3.67063C9.59761 3.67063 10.1979 3.07085 10.1979 2.33416C10.1979 1.59749 9.59762 0.999817 8.86146 0.999817C8.12531 0.999817 7.52499 1.5996 7.52499 2.33629C7.52499 3.07297 8.12477 3.67063 8.86146 3.67063V3.67063ZM8.86146 1.45473C9.34779 1.45473 9.74303 1.84996 9.74303 2.33629C9.74303 2.82262 9.34779 3.21785 8.86146 3.21785C8.37514 3.21785 7.9799 2.82262 7.9799 2.33629C7.97937 1.84996 8.37514 1.45473 8.86146 1.45473Z" fill="white"/>
</svg>
