<svg viewBox="0 0 12 12" fill="none" xmlns="http://www.w3.org/2000/svg">
<g clip-path="url(#clip0)">
<path d="M7.65498 0.0631561H4.21882C3.43576 0.0631561 2.79132 0.707569 2.79132 1.49065V10.6234C2.79132 11.4065 3.43573 12.0509 4.21882 12.0509H7.65448C8.43753 12.0509 9.08197 11.4065 9.08197 10.6234V1.49065C9.08197 0.707594 8.43805 0.0631561 7.65498 0.0631561V0.0631561ZM4.4842 3.15789L5.7725 1.7304L5.78533 1.71757C5.82332 1.67958 5.88648 1.65441 5.94964 1.65441C6.0128 1.65441 6.07596 1.67958 6.11395 1.7304L7.38949 3.15789C7.45265 3.22105 7.46547 3.32221 7.42748 3.39769C7.38949 3.47368 7.31399 3.53684 7.22517 3.53684H6.53044V5.26724C6.53044 5.36839 6.44211 5.45672 6.34096 5.45672H5.50708C5.40593 5.45672 5.3176 5.36839 5.3176 5.26724V3.53684H4.62287C4.53454 3.53684 4.45856 3.48651 4.42056 3.39769C4.40822 3.3222 4.42105 3.22105 4.48421 3.15789H4.4842ZM7.38947 8.96842L6.10117 10.3959C6.06318 10.4462 6.00002 10.4719 5.93686 10.4719C5.8737 10.4719 5.81055 10.4467 5.77255 10.3959L4.48426 8.96842C4.4211 8.90527 4.40827 8.80411 4.44626 8.72863C4.45909 8.70346 4.47143 8.6783 4.49659 8.66547C4.53458 8.62748 4.59774 8.60231 4.6609 8.60231H5.35564V6.85903C5.35564 6.75787 5.44396 6.66955 5.54511 6.66955H6.379C6.48015 6.66955 6.56847 6.75787 6.56847 6.85903V8.58943H7.26321C7.35153 8.58943 7.42752 8.63976 7.46552 8.72858C7.46552 8.80407 7.45269 8.90522 7.38953 8.96837L7.38947 8.96842Z" fill="white"/>
</g>
<defs>
<clipPath id="clip0">
<rect width="11.8737" height="12" fill="white"/>
</clipPath>
</defs>
</svg>
