<svg width="16" height="16" viewBox="0 0 16 16" fill="none" xmlns="http://www.w3.org/2000/svg">
<path d="M13.6163 7.40815H12.4001C12.1438 6.51189 11.3282 5.85628 10.3682 5.85628C9.40825 5.85628 8.5919 6.52815 8.32006 7.40815H2.38374C2.06374 7.40815 1.79187 7.66441 1.79187 8.00002C1.79187 8.32002 2.04813 8.5919 2.38374 8.5919H8.32006C8.57632 9.48815 9.39193 10.1438 10.3519 10.1438C11.3119 10.1438 12.1282 9.48751 12.3837 8.5919H13.6C13.92 8.5919 14.1919 8.33564 14.1919 8.00002C14.2081 7.68002 13.9519 7.40815 13.6162 7.40815H13.6163ZM10.3682 8.96002C9.85629 8.96002 9.40816 8.54377 9.40816 8.00002C9.40816 7.45628 9.82442 7.04002 10.3682 7.04002C10.9119 7.04002 11.3282 7.45628 11.3282 8.00002C11.3282 8.54377 10.88 8.96002 10.3682 8.96002Z" fill="white"/>
<path d="M2.38369 3.90368H3.64743C3.90369 4.79993 4.71931 5.45555 5.67927 5.45555C6.63924 5.45555 7.45559 4.79929 7.71111 3.90368H13.6148C13.9348 3.90368 14.2067 3.64742 14.2067 3.3118C14.2067 2.97555 13.9504 2.71993 13.6148 2.71993H7.71159C7.45534 1.82368 6.63972 1.16806 5.67975 1.16806C4.71979 1.16806 3.90343 1.82432 3.64791 2.71993H2.38417C2.06417 2.71993 1.7923 2.97619 1.7923 3.3118C1.79167 3.64806 2.04793 3.90368 2.38355 3.90368H2.38369ZM5.68001 2.3518C6.19188 2.3518 6.64001 2.76806 6.64001 3.3118C6.64001 3.85555 6.22375 4.2718 5.68001 4.2718C5.13627 4.2718 4.72001 3.82368 4.72001 3.3118C4.72001 2.79993 5.16814 2.3518 5.68001 2.3518V2.3518Z" fill="white"/>
<path d="M13.6163 12.0963H7.71202C7.45577 11.2001 6.64015 10.5444 5.68018 10.5444C4.72021 10.5444 3.90386 11.2007 3.64834 12.0963H2.3846C2.0646 12.0963 1.79272 12.3526 1.79272 12.6882C1.79272 13.0244 2.04898 13.2801 2.3846 13.2801H3.64834C3.9046 14.1763 4.72021 14.8319 5.68018 14.8319C6.64015 14.8319 7.4565 14.1757 7.71202 13.2801H13.6157C13.9357 13.2801 14.2076 13.0238 14.2076 12.6882C14.2082 12.3519 13.9519 12.0963 13.6163 12.0963H13.6163ZM5.68002 13.6482C5.16815 13.6482 4.72002 13.2319 4.72002 12.6882C4.72002 12.1444 5.13628 11.7282 5.68002 11.7282C6.22377 11.7282 6.64002 12.1444 6.64002 12.6882C6.64002 13.2319 6.19189 13.6482 5.68002 13.6482Z" fill="white"/>
</svg>
