<svg viewBox="0 0 10 12" fill="none" xmlns="http://www.w3.org/2000/svg">
<g clip-path="url(#clip0)">
<path d="M9.34369 3.16953C9.34369 3.16953 9.31304 3.03612 9.30283 2.99526C9.30283 2.98504 9.29261 2.96461 9.29261 2.95439C9.28239 2.93396 9.25175 2.85163 9.25175 2.82098C9.25175 2.81076 9.25175 2.80055 9.24153 2.79033C9.14898 2.49285 9.00534 2.22602 8.88276 2.03131C7.85631 0.33839 5.77461 -0.184379 4.25661 0.0511596C2.88221 0.266298 1.84615 0.94359 1.2723 2.0307C1.12867 2.32818 1.03611 2.56374 0.985037 2.78971L0.944173 2.94356C0.944173 2.96399 0.933956 2.97421 0.933956 2.99464L0.903307 3.16892C0.852226 3.47661 0.852226 3.81495 0.893091 4.17433V4.2771C0.893091 4.35943 0.872659 4.46159 0.831792 4.54393L0.0932078 6.11301C0.000660137 6.30771 0.0216939 6.53368 0.134072 6.71818C0.257269 6.91288 0.45198 7.01565 0.677949 7.01565H0.995857L0.842011 7.73381C0.801146 7.90808 0.811362 8.09257 0.87266 8.25664L0.903309 8.32815C0.995857 8.58477 1.01629 8.85098 0.964608 9.11781C0.933959 9.3023 0.974824 9.4868 1.07759 9.63043C1.18035 9.78427 1.34442 9.87683 1.5187 9.90747L2.59562 10.0715V11.7843C2.59562 11.8558 2.62627 11.9177 2.67795 11.9484C2.7086 11.9688 2.76028 11.9892 2.80115 11.9892C2.82158 11.9892 2.85223 11.9892 2.87266 11.979L7.68282 10.2458C7.7339 10.2254 7.77536 10.1845 7.7958 10.1328C7.81623 10.0817 7.81623 10.0198 7.7958 9.96874C7.47789 9.1893 7.42681 8.52283 7.66238 7.9789C7.7958 7.6712 7.99051 7.48671 8.10349 7.36351L8.14436 7.32265C9.36431 6.14355 9.76389 4.73849 9.34388 3.16942L9.34369 3.16953ZM7.27154 5.03615C6.94341 5.95923 6.0612 6.59507 5.08708 6.61553H5.04621C4.08227 6.61553 3.1899 6.01036 2.84129 5.11793C2.4723 4.19486 2.74874 3.11793 3.48732 2.46163C3.91821 2.08243 4.4819 1.8871 5.04624 1.8871C5.44649 1.8871 5.84612 1.98987 6.2055 2.18458C7.18987 2.73867 7.65141 3.95919 7.27161 5.03612L7.27154 5.03615Z" fill="white"/>
<path d="M6.95367 4.24646C6.95367 4.35944 6.86112 4.45138 6.74874 4.45138H5.5997C5.51737 4.67674 5.30222 4.84141 5.04561 4.84141C4.71748 4.84141 4.45065 4.57458 4.45065 4.24646C4.45065 4.15391 4.47109 4.07218 4.51195 3.98984L3.87674 3.3336C3.7944 3.25127 3.7944 3.12868 3.87674 3.04634C3.95907 2.96401 4.09187 2.96401 4.164 3.04634L4.79981 3.69237C4.87133 3.66172 4.95366 3.64129 5.04621 3.64129C5.30283 3.64129 5.51797 3.80535 5.6003 4.03132H6.75957C6.87195 4.04093 6.95367 4.13348 6.95367 4.24646L6.95367 4.24646Z" fill="white"/>
</g>
<defs>
<clipPath id="clip0">
<rect width="9.53846" height="12" fill="white"/>
</clipPath>
</defs>
</svg>
