<svg viewBox="0 0 14 12" fill="none" xmlns="http://www.w3.org/2000/svg">
<path d="M3.39572 0.0545044H10.5572C12.3188 0.0545044 13.1533 1.49939 12.9402 3.12971L12.0757 9.71353C11.9035 11.0304 10.8074 11.9455 9.49154 11.9455H4.46173C3.1465 11.9455 2.05043 11.0304 1.87754 9.71353L1.01308 3.12971C0.79997 1.49995 1.63444 0.0545044 3.3955 0.0545044H3.39572ZM6.09042 3.26604L5.65111 2.54383L6.37331 2.98315C6.54501 2.86596 6.75268 2.79783 6.97669 2.79783C7.49231 2.79783 7.9229 3.16193 8.02538 3.64703H5.92803C5.95746 3.50858 6.0136 3.3794 6.09046 3.26603L6.09042 3.26604ZM5.94217 1.32511H8.01007C8.87018 1.32511 9.57384 2.02824 9.57384 2.88832V4.58185H4.37896V2.88832C4.37896 2.02821 5.08209 1.32511 5.94217 1.32511ZM8.01007 2.03805H5.94217C5.47396 2.03805 5.09132 2.42014 5.09132 2.88889V3.86999H8.86044V2.88889C8.86044 2.42068 8.47835 2.03805 8.0096 2.03805H8.01007ZM2.15393 4.66033C6.73458 4.09401 4.67044 7.69842 4.81542 8.29103C5.02581 9.14731 6.03853 9.36588 5.71259 11.0097H4.46058C3.61902 11.0097 2.9137 10.45 2.80137 9.59261L2.15393 4.66033ZM11.7976 4.66196C7.20719 4.07929 9.26854 7.7034 9.12412 8.29099C9.01947 8.71777 8.36431 9.14455 8.20733 10.0286C8.15555 10.3202 8.15773 10.6609 8.22696 11.0097H9.49095C10.3325 11.0097 11.0378 10.4499 11.1507 9.5926L11.7982 4.66199L11.7976 4.66196ZM10.5565 0.767544H3.39503C2.06781 0.767544 1.5614 1.84567 1.71684 3.03778L2.5813 9.62159C2.70775 10.5852 3.503 11.2328 4.4607 11.2328H9.49051C10.4487 11.2328 11.2439 10.5853 11.3699 9.62159L12.2344 3.03778C12.3903 1.84573 11.8839 0.767544 10.5562 0.767544H10.5565Z" fill="white"/>
</svg>
