<svg viewBox="0 0 12 12" fill="none" xmlns="http://www.w3.org/2000/svg">
<path d="M6 0C9.32724 0 12 2.70144 12 6C12 9.32724 9.32724 12 6 12C2.70144 12 0 9.32724 0 6C0 2.70144 2.70144 0 6 0ZM10.9476 3.55452L10.1512 3.95249C10.0945 4.00921 10.0373 3.98108 9.98057 3.98108L8.41685 3.83905C8.33154 3.81046 8.27482 3.78233 8.24622 3.72514L7.79106 3.24187L7.27919 3.95296C7.22247 4.03828 7.13716 4.06687 7.05185 4.06687L6.28404 3.89624L6.39795 4.72077L7.47841 5.34655L8.24622 4.97671C8.30294 4.94812 8.38825 4.94812 8.44545 4.97671L9.55451 5.37468C9.61123 5.40327 9.63982 5.4314 9.66842 5.45999L10.4648 6.31312C10.5215 6.36984 10.5501 6.42702 10.5501 6.48375C10.4934 7.33687 10.4362 8.04747 10.4362 8.87247L10.6069 9.04309C11.204 8.16137 11.5167 7.10953 11.5167 6.00049C11.5167 5.11877 11.3175 4.29421 10.9481 3.55501L10.9476 3.55452ZM10.3504 9.41244L10.0659 9.1851C10.0092 9.15651 9.95197 9.07119 9.95197 8.98588C9.95197 8.10415 10.0087 7.4788 10.0659 6.56896L9.35478 5.80115L8.35962 5.45989L7.56322 5.82973C7.5065 5.85833 7.42118 5.85833 7.33588 5.82973L6.0562 5.09051C5.99948 5.06191 5.94229 5.0052 5.94229 4.91988L5.77166 3.6402C5.74307 3.46957 5.88557 3.32754 6.05619 3.35567L6.99463 3.55489L7.59182 2.73036C7.67713 2.61645 7.84776 2.58833 7.96166 2.70177L8.55885 3.35567L9.98061 3.4977L10.7198 3.12786C10.4072 2.61599 10.0373 2.18943 9.61077 1.81962L8.84297 2.47353C8.75765 2.53025 8.67234 2.55884 8.58703 2.53025L7.16527 1.93305L6.71011 2.24571C6.65339 2.30243 6.53948 2.33103 6.45417 2.27431L5.80027 1.87634C5.71496 1.81962 5.65824 1.67712 5.71496 1.56368L6.02762 0.852583C6.05621 0.76727 6.14152 0.681955 6.25496 0.681955H7.05136L7.16527 0.596642C6.7673 0.51133 6.39746 0.482736 5.99949 0.482736C5.51622 0.482736 5.03246 0.539455 4.57773 0.653364L5.0043 0.9093C5.08961 0.966019 5.14633 1.05133 5.14633 1.13664L5.11773 1.73383C5.11773 1.79055 5.11773 1.84774 5.06101 1.87586L4.40711 2.67227L4.15117 3.6107C4.12258 3.72461 4.03727 3.78133 3.92383 3.78133H3.18461L2.53071 4.8904L2.38867 5.5729C2.33196 5.74352 2.16133 5.80024 2.01883 5.74352L0.99509 5.17493C0.909778 5.11821 0.881184 5.06102 0.853058 4.9757L0.711026 4.43524C0.568994 4.91851 0.483686 5.45898 0.483686 5.99896C0.483686 9.04156 2.95773 11.5157 6.00045 11.5157C7.76337 11.5157 9.32769 10.6912 10.3514 9.41152L10.3504 9.41244ZM7.70573 0.73968L7.30776 1.10952C7.25104 1.16624 7.19385 1.16624 7.13713 1.16624H6.39791L6.22728 1.56421L6.56854 1.76343L6.9951 1.4789C7.08041 1.42218 7.16573 1.42218 7.25104 1.45031L8.61604 2.0189L9.21323 1.50703C8.75807 1.19437 8.2462 0.938434 7.70615 0.739222L7.70573 0.73968ZM1.02317 3.64032L1.3077 4.8061L1.9902 5.17594L2.07551 4.74937C2.07551 4.72078 2.07551 4.69265 2.10411 4.69265L2.84333 3.44153C2.87192 3.35622 2.95724 3.2995 3.04255 3.2995H3.75365L3.95287 2.5031C3.98147 2.4745 3.98147 2.44638 4.00959 2.41778L4.63537 1.64998L4.66396 1.25201L3.98146 0.882168C2.67322 1.39404 1.6213 2.38925 1.02406 3.64025L1.02317 3.64032Z" fill="white"/>
<path d="M4.03774 6.08533L3.83852 5.57346L3.07071 6.39799L3.18461 7.1658L3.61118 7.53564H4.32227C4.4929 7.53564 4.57821 7.67767 4.57821 7.82017L4.4929 9.72517L5.00477 10.5783L5.09008 10.635L5.1468 9.95252C5.1468 9.8672 5.1754 9.81049 5.26071 9.75329L5.8579 9.27002V8.67282C5.8579 8.58751 5.91462 8.53079 5.97181 8.4736L6.76821 7.8197L6.88212 7.16579L6.28492 7.22251C6.19961 7.22251 6.1143 7.16579 6.05759 7.08048L5.57431 6.17064L4.26607 6.25595C4.15216 6.25595 4.06684 6.19923 4.03873 6.08532L4.03774 6.08533ZM4.15165 5.03299L4.40758 5.77221L5.68726 5.6869C5.77258 5.6869 5.88649 5.74362 5.9146 5.82893L6.39788 6.73877L7.10897 6.65346C7.2796 6.62487 7.42163 6.76737 7.39351 6.93799L7.22288 7.99033C7.22288 8.04705 7.19429 8.10424 7.13757 8.13236L6.34116 8.78627V9.38346C6.34116 9.46877 6.31257 9.52549 6.25585 9.58268L5.60195 10.0946L5.54523 11.0044C5.51663 11.2036 5.346 11.2889 5.20397 11.2317L4.72069 11.0044C4.6921 10.9758 4.63538 10.9477 4.60679 10.8905L4.06632 9.92346C4.03773 9.89486 4.0096 9.83815 4.0096 9.78143L4.09491 8.01851H3.55445C3.49773 8.01851 3.44054 8.0185 3.38382 7.96179L2.81522 7.47851C2.7585 7.44992 2.72991 7.3932 2.72991 7.33648L2.55928 6.36945C2.55928 6.31273 2.58787 6.22741 2.616 6.17022L3.75366 4.97585C3.86757 4.83382 4.09492 4.86194 4.15163 5.03257L4.15165 5.03299Z" fill="white"/>
</svg>
